<svg width="28" height="28" viewBox="0 0 28 28" fill="none" xmlns="http://www.w3.org/2000/svg">
<g clip-path="url(#clip0_38_18)">
<path d="M8.02344 22.3115H19.915C21.251 22.3115 22.0332 21.5469 22.0332 20.2461V12.0107L23.1055 12.9072C23.3164 13.083 23.5537 13.2324 23.8262 13.2324C24.3359 13.2324 24.7227 12.916 24.7227 12.415C24.7227 12.1162 24.6084 11.8789 24.3799 11.6943L22.0332 9.7168V5.98145C22.0332 5.58594 21.7783 5.33105 21.3828 5.33105H20.1963C19.8096 5.33105 19.5459 5.58594 19.5459 5.98145V7.625L15.2393 4.00391C14.4834 3.37109 13.5342 3.37109 12.7695 4.00391L3.61133 11.6943C3.38281 11.8877 3.26855 12.1426 3.26855 12.3887C3.26855 12.8457 3.61133 13.2324 4.17383 13.2324C4.44629 13.2324 4.68359 13.083 4.89453 12.9072L5.90527 12.0635V20.2461C5.90527 21.5469 6.6875 22.3115 8.02344 22.3115ZM16.5225 14.8232C16.5225 14.4102 16.2588 14.1465 15.8457 14.1465H12.1455C11.7412 14.1465 11.46 14.4102 11.46 14.8232V20.5889H8.48047C7.92676 20.5889 7.62793 20.2812 7.62793 19.7275V10.6133L13.6309 5.58594C13.8682 5.375 14.1406 5.375 14.3779 5.58594L20.3105 10.5605V19.7275C20.3105 20.2812 20.0117 20.5889 19.458 20.5889H16.5225V14.8232Z" fill="#1C1C1E"/>
</g>
<defs>
<clipPath id="clip0_38_18">
<rect width="28" height="28" fill="white"/>
</clipPath>
</defs>
</svg>
