<svg width="31" height="28" viewBox="0 0 31 28" fill="none" xmlns="http://www.w3.org/2000/svg">
<g clip-path="url(#clip0_38_31)">
<path d="M9.44141 23.1729H18.8018C20.6826 23.1729 21.6582 22.1885 21.6582 20.29V16.335H19.9355V20.1846C19.9355 21.002 19.5049 21.4502 18.6523 21.4502H9.58203C8.72949 21.4502 8.30762 21.002 8.30762 20.1846V7.13281C8.30762 6.31543 8.72949 5.86719 9.58203 5.86719H18.6523C19.5049 5.86719 19.9355 6.31543 19.9355 7.13281V10.9912H21.6582V7.02734C21.6582 5.1377 20.6826 4.14453 18.8018 4.14453H9.44141C7.56055 4.14453 6.58496 5.1377 6.58496 7.02734V20.29C6.58496 22.1885 7.56055 23.1729 9.44141 23.1729ZM15.1016 14.4629H23.9609L25.2617 14.4014L24.6201 14.9463L23.3105 16.1768C23.1523 16.3174 23.0645 16.5195 23.0645 16.7217C23.0645 17.1172 23.3633 17.4512 23.7676 17.4512C23.9785 17.4512 24.1367 17.3633 24.2861 17.2139L27.1338 14.2695C27.3359 14.0586 27.4062 13.8652 27.4062 13.6543C27.4062 13.4434 27.3359 13.25 27.1338 13.0391L24.2861 10.0859C24.1367 9.93652 23.9785 9.85742 23.7676 9.85742C23.3633 9.85742 23.0645 10.1738 23.0645 10.5781C23.0645 10.7715 23.1523 10.9824 23.3105 11.123L24.6201 12.3623L25.2705 12.9072L23.9609 12.8369H15.1016C14.6709 12.8369 14.3018 13.2061 14.3018 13.6543C14.3018 14.1025 14.6709 14.4629 15.1016 14.4629Z" fill="#1C1C1E"/>
</g>
<defs>
<clipPath id="clip0_38_31">
<rect width="28" height="28" fill="white" transform="translate(3)"/>
</clipPath>
</defs>
</svg>
