<svg width="28" height="28" viewBox="0 0 28 28" fill="none" xmlns="http://www.w3.org/2000/svg">
<g id="basil:add-solid">
<path id="Vector" fill-rule="evenodd" clip-rule="evenodd" d="M8.56921 4.68654C12.1787 4.28645 15.8214 4.28645 19.4309 4.68654C21.4294 4.91054 23.0417 6.48438 23.2762 8.48988C23.7043 12.1505 23.7043 15.8485 23.2762 19.509C23.1575 20.4835 22.7132 21.3894 22.0152 22.0797C21.3173 22.7701 20.4066 23.2044 19.4309 23.3124C15.8214 23.7137 12.1786 23.7137 8.56921 23.3124C7.59347 23.2044 6.68279 22.7701 5.98483 22.0797C5.28687 21.3894 4.84254 20.4835 4.72387 19.509C4.29582 15.8489 4.29582 12.1512 4.72387 8.49104C4.84248 7.51673 5.28665 6.61101 5.98438 5.9207C6.68211 5.23038 7.59251 4.79591 8.56804 4.68771L8.56921 4.68654ZM14 8.17488C14.2321 8.17488 14.4547 8.26706 14.6188 8.43116C14.7829 8.59525 14.875 8.81781 14.875 9.04988V13.125H18.9502C19.1823 13.125 19.4048 13.2172 19.5689 13.3813C19.733 13.5454 19.8252 13.768 19.8252 14C19.8252 14.2321 19.733 14.4547 19.5689 14.6188C19.4048 14.7829 19.1823 14.875 18.9502 14.875H14.875V18.9502C14.875 19.1823 14.7829 19.4048 14.6188 19.5689C14.4547 19.733 14.2321 19.8252 14 19.8252C13.768 19.8252 13.5454 19.733 13.3813 19.5689C13.2172 19.4048 13.125 19.1823 13.125 18.9502V14.875H9.04987C8.81781 14.875 8.59525 14.7829 8.43115 14.6188C8.26706 14.4547 8.17487 14.2321 8.17487 14C8.17487 13.768 8.26706 13.5454 8.43115 13.3813C8.59525 13.2172 8.81781 13.125 9.04987 13.125H13.125V9.04988C13.125 8.81781 13.2172 8.59525 13.3813 8.43116C13.5454 8.26706 13.768 8.17488 14 8.17488Z" fill="black"/>
</g>
</svg>
