<!DOCTYPE svg PUBLIC "-//W3C//DTD SVG 1.1//EN" "http://www.w3.org/Graphics/SVG/1.1/DTD/svg11.dtd">
<!-- Uploaded to: SVG Repo, www.svgrepo.com, Transformed by: SVG Repo Mixer Tools -->
<svg fill="#463BC3" version="1.1" id="Layer_1" xmlns="http://www.w3.org/2000/svg" xmlns:xlink="http://www.w3.org/1999/xlink" width="800px" height="800px" viewBox="0 0 248 256" enable-background="new 0 0 248 256" xml:space="preserve" stroke="#463BC3">
<g id="SVGRepo_bgCarrier" stroke-width="0"/>
<g id="SVGRepo_tracerCarrier" stroke-linecap="round" stroke-linejoin="round"/>
<g id="SVGRepo_iconCarrier"> <path d="M118,31v194l128,29V2L118,31z M130,40.59l104-23.57v221.96l-104-23.57V40.59z M2,30v224h39v-30h12 c18.085,0,31.965-15.162,31.965-33.346v-19.666h14.033c3.755,0,6.72-2.965,6.72-6.621c0-0.889-0.099-1.779-0.494-2.569 l-19.468-47.435c0,0-1.779-18.085-3.36-25.002C75.181,58.132,40.751,30,3,30C2.704,30,2.988,30,2,30z M54.824,116.635 c0-4.941,3.953-8.894,8.894-8.894s8.894,3.953,8.894,8.894c0,4.941-3.953,8.894-8.894,8.894S54.824,121.576,54.824,116.635z M144.962,88.246c4.03-0.384,7.357,3.259,7.357,8.144s-3.327,9.017-7.357,9.224c-3.949,0.203-7.093-3.453-7.093-8.163 S141.013,88.623,144.962,88.246z M159.197,88.974l65.94-5.952v15.994l-65.94,3.738V88.974z M144.962,117.338 c4.03-0.088,7.357,3.799,7.357,8.684c0,4.885-3.327,8.773-7.357,8.684c-3.949-0.087-7.093-3.974-7.093-8.684 S141.013,117.425,144.962,117.338z M159.197,119.112l65.94-1.11v15.994l-65.94-1.104V119.112z M144.962,146.43 c4.03,0.208,7.357,4.339,7.357,9.224s-3.327,8.528-7.357,8.144c-3.949-0.377-7.093-4.495-7.093-9.205 S141.013,146.227,144.962,146.43z M159.197,149.29l65.94,3.738v15.994l-65.94-5.952V149.29z"/> </g>
</svg>