<svg xmlns="http://www.w3.org/2000/svg" fill="none" viewBox="1.45 3.69 24.22 20.75">
<g id="raphael:people">
<path id="Vector" d="M18.4328 18.5837C19.5064 17.9869 19.3673 15.6874 18.123 13.4439C17.5893 12.4779 16.933 11.6957 16.2768 11.1488C15.492 11.7312 14.5415 12.047 13.5643 12.05C12.5856 12.0479 11.6333 11.732 10.8474 11.1488C10.1911 11.6957 9.53664 12.4788 9.00114 13.4439C7.75602 15.6865 7.61864 17.9869 8.69489 18.5837C9.17439 18.8567 9.68014 18.6519 10.2016 18.1497C10.104 18.6908 10.0551 19.2395 10.0555 19.7894C10.0555 22.3602 11.053 24.4374 12.2806 24.4374C13.0209 24.4374 13.3875 23.6805 13.5634 22.5229C13.7384 23.6727 14.1059 24.4374 14.8409 24.4374C16.0633 24.4374 17.0686 22.3593 17.0686 19.7894C17.0686 19.2119 17.0144 18.6607 16.9216 18.1505C17.4466 18.6537 17.9506 18.8619 18.4319 18.5854L18.4328 18.5837ZM13.5625 11.175C14.059 11.1824 14.5519 11.091 15.0127 10.9061C15.4735 10.7213 15.8929 10.4466 16.2465 10.098C16.6002 9.74954 16.881 9.33417 17.0726 8.87613C17.2641 8.41808 17.3627 7.92651 17.3626 7.43001C17.3624 6.93351 17.2635 6.442 17.0715 5.98409C16.8796 5.52618 16.5986 5.11101 16.2447 4.76275C15.8908 4.41449 15.4712 4.14009 15.0103 3.95552C14.5494 3.77094 14.0563 3.67989 13.5599 3.68765C12.5769 3.70302 11.6394 4.10438 10.9499 4.80507C10.2603 5.50575 9.87396 6.44954 9.8743 7.43263C9.87465 8.41573 10.2616 9.35924 10.9517 10.0594C11.6418 10.7596 12.5795 11.1603 13.5625 11.175ZM21.0823 13.5498C21.8818 13.5264 22.6408 13.1924 23.1981 12.6185C23.7554 12.0447 24.0672 11.2763 24.0672 10.4763C24.0672 9.67642 23.7554 8.90799 23.1981 8.33416C22.6408 7.76033 21.8818 7.42627 21.0823 7.4029C20.2669 7.40302 19.485 7.72703 18.9085 8.30366C18.3321 8.88028 18.0083 9.66229 18.0084 10.4777C18.0085 11.293 18.3325 12.0749 18.9091 12.6514C19.4858 13.2279 20.2678 13.5516 21.0831 13.5515L21.0823 13.5498ZM24.8273 15.4135C24.388 14.619 23.8508 13.9768 23.3118 13.5279C22.667 14.0056 21.8864 14.2647 21.084 14.2673C20.4225 14.2673 19.8065 14.0862 19.2675 13.786C19.7015 14.7424 19.9701 15.711 20.02 16.5773C20.1023 17.9038 19.6875 18.8873 18.858 19.3467C18.6802 19.4443 18.4869 19.5106 18.2866 19.5427C18.2368 19.8857 18.2026 20.2427 18.2026 20.6189C18.2026 22.7303 19.0208 24.4357 20.0296 24.4357C20.6369 24.4357 20.9396 23.8144 21.0831 22.8642C21.2258 23.8092 21.5276 24.4357 22.1331 24.4357C23.135 24.4357 23.9619 22.7294 23.9619 20.6207C23.9619 20.1455 23.9155 19.6932 23.8394 19.2732C24.2699 19.687 24.6846 19.8577 25.0801 19.6302C25.9613 19.1402 25.8475 17.2519 24.8264 15.4127L24.8273 15.4135ZM6.04277 13.5498C6.65048 13.5494 7.24444 13.3689 7.74956 13.031C8.25468 12.6932 8.64828 12.2131 8.8806 11.6516C9.11292 11.09 9.17353 10.4722 9.05476 9.87619C8.93599 9.2802 8.64317 8.73281 8.21334 8.30322C7.7835 7.87363 7.23594 7.58113 6.63989 7.4627C6.04383 7.34427 5.42604 7.40522 4.86463 7.63786C4.30321 7.8705 3.82338 8.26438 3.48579 8.76969C3.1482 9.27501 2.96802 9.86907 2.96802 10.4768C2.96825 11.2922 3.29227 12.0741 3.86885 12.6507C4.44542 13.2273 5.22736 13.5513 6.04277 13.5515V13.5498ZM8.26089 19.344C6.86789 18.5697 6.74014 16.2605 7.86189 13.7843C7.30743 14.0991 6.68123 14.2657 6.04364 14.2682C5.20714 14.2682 4.44064 13.9882 3.81239 13.5279C3.27427 13.9759 2.73789 14.6182 2.29689 15.4118C1.27577 17.2528 1.16377 19.141 2.04577 19.6293C2.43952 19.855 2.85514 19.6862 3.28302 19.274C3.20443 19.7183 3.1649 20.1686 3.16489 20.6198C3.16489 22.7303 3.98302 24.4348 4.99189 24.4348C5.59914 24.4348 5.90189 23.8135 6.04539 22.8642C6.18977 23.8092 6.49164 24.4357 7.09539 24.4357C8.09902 24.4357 8.92414 22.7294 8.92414 20.6207C8.92414 20.2418 8.88914 19.8839 8.83927 19.5409C8.63676 19.509 8.44134 19.4421 8.26177 19.3432L8.26089 19.344Z" fill="white"/>
</g>
</svg>