<svg xmlns="http://www.w3.org/2000/svg" fill="none" viewBox="1.58 2.08 24.83 24.83">
<g id="solar:pen-line-duotone">
<g id="Group">
<path id="Vector" d="M17.8348 4.17735L16.7533 5.25885L6.81215 15.1989C6.13898 15.8732 5.80181 16.2104 5.51248 16.5814C5.17077 17.0192 4.87777 17.4929 4.63865 17.9942C4.43681 18.4189 4.28631 18.8715 3.98531 19.7745L2.70898 23.6024L2.39631 24.538C2.32318 24.7561 2.31233 24.9903 2.36498 25.2142C2.41763 25.4382 2.5317 25.643 2.69436 25.8056C2.85703 25.9683 3.06183 26.0824 3.28577 26.135C3.5097 26.1877 3.74388 26.1768 3.96198 26.1037L4.89765 25.791L8.72548 24.5147C9.62965 24.2137 10.0811 24.0632 10.5058 23.8614C11.0075 23.6222 11.4811 23.3294 11.9186 22.9875C12.2896 22.6982 12.6268 22.361 13.3 21.6879L23.2411 11.7467L24.3226 10.6652C25.183 9.80485 25.6663 8.63797 25.6663 7.42127C25.6663 6.20457 25.183 5.03769 24.3226 4.17735C23.4623 3.31701 22.2954 2.83368 21.0787 2.83368C19.862 2.83368 18.6952 3.31701 17.8348 4.17735Z" stroke="white" stroke-width="1.5"/>
<path id="Vector_2" opacity="0.5" d="M16.7533 5.25769C16.7533 5.25769 16.8887 7.55602 18.9163 9.58369C20.944 11.6114 23.2411 11.7455 23.2411 11.7455M4.89765 25.791L2.70898 23.6" stroke="white" stroke-width="1.5"/>
</g>
</g>
</svg>