<svg width="28" height="28" viewBox="0 0 28 28" fill="none" xmlns="http://www.w3.org/2000/svg">
<g clip-path="url(#clip0_38_28)">
<path d="M14.0088 13.8389C16.127 13.8389 17.8496 11.9668 17.8496 9.66406C17.8496 7.40527 16.1357 5.59473 14.0088 5.59473C11.8906 5.59473 10.1504 7.42285 10.1592 9.68164C10.168 11.9756 11.8818 13.8389 14.0088 13.8389ZM14.0088 12.3184C12.7871 12.3184 11.7588 11.1846 11.75 9.68164C11.75 8.22266 12.7783 7.11523 14.0088 7.11523C15.2393 7.11523 16.2588 8.20508 16.2588 9.66406C16.2588 11.167 15.2305 12.3184 14.0088 12.3184ZM8.52441 22.0127H19.4844C20.9961 22.0127 21.7256 21.5381 21.7256 20.5098C21.7256 18.1016 18.7197 14.8672 14 14.8672C9.28027 14.8672 6.27441 18.1016 6.27441 20.5098C6.27441 21.5381 7.00391 22.0127 8.52441 22.0127ZM8.22559 20.4922C8.02344 20.4922 7.94434 20.4307 7.94434 20.2637C7.94434 18.9189 10.1152 16.3877 14 16.3877C17.8848 16.3877 20.0645 18.9189 20.0645 20.2637C20.0645 20.4307 19.9766 20.4922 19.7744 20.4922H8.22559Z" fill="#1C1C1E"/>
</g>
<defs>
<clipPath id="clip0_38_28">
<rect width="28" height="28" fill="white"/>
</clipPath>
</defs>
</svg>
