<svg xmlns="http://www.w3.org/2000/svg" fill="none" viewBox="1.58 2.67 24.83 24.25">
<g id="solar:calendar-linear">
<g id="Group">
<path id="Vector" d="M2.33331 14.5C2.33331 10.1005 2.33331 7.90019 3.70065 6.53402C5.06681 5.16669 7.26715 5.16669 11.6666 5.16669H16.3333C20.7328 5.16669 22.9331 5.16669 24.2993 6.53402C25.6666 7.90019 25.6666 10.1005 25.6666 14.5V16.8334C25.6666 21.2329 25.6666 23.4332 24.2993 24.7994C22.9331 26.1667 20.7328 26.1667 16.3333 26.1667H11.6666C7.26715 26.1667 5.06681 26.1667 3.70065 24.7994C2.33331 23.4332 2.33331 21.2329 2.33331 16.8334V14.5Z" stroke="#463bc3" stroke-width="1.5" fill="#fcfcfc"/>
<path id="Vector_2" d="M8.16663 5.16669V3.41669M19.8333 5.16669V3.41669M2.91663 11H25.0833" stroke="#463bc3" stroke-width="1.5" stroke-linecap="round" fill="#fcfcfc"/>
<path id="Vector_3" d="M21 20.3333C21 20.6428 20.8771 20.9395 20.6583 21.1583C20.4395 21.3771 20.1428 21.5 19.8333 21.5C19.5239 21.5 19.2272 21.3771 19.0084 21.1583C18.7896 20.9395 18.6667 20.6428 18.6667 20.3333C18.6667 20.0239 18.7896 19.7272 19.0084 19.5084C19.2272 19.2896 19.5239 19.1667 19.8333 19.1667C20.1428 19.1667 20.4395 19.2896 20.6583 19.5084C20.8771 19.7272 21 20.0239 21 20.3333ZM21 15.6667C21 15.9761 20.8771 16.2728 20.6583 16.4916C20.4395 16.7104 20.1428 16.8333 19.8333 16.8333C19.5239 16.8333 19.2272 16.7104 19.0084 16.4916C18.7896 16.2728 18.6667 15.9761 18.6667 15.6667C18.6667 15.3572 18.7896 15.0605 19.0084 14.8417C19.2272 14.6229 19.5239 14.5 19.8333 14.5C20.1428 14.5 20.4395 14.6229 20.6583 14.8417C20.8771 15.0605 21 15.3572 21 15.6667ZM15.1667 20.3333C15.1667 20.6428 15.0437 20.9395 14.825 21.1583C14.6062 21.3771 14.3094 21.5 14 21.5C13.6906 21.5 13.3938 21.3771 13.175 21.1583C12.9562 20.9395 12.8333 20.6428 12.8333 20.3333C12.8333 20.0239 12.9562 19.7272 13.175 19.5084C13.3938 19.2896 13.6906 19.1667 14 19.1667C14.3094 19.1667 14.6062 19.2896 14.825 19.5084C15.0437 19.7272 15.1667 20.0239 15.1667 20.3333ZM15.1667 15.6667C15.1667 15.9761 15.0437 16.2728 14.825 16.4916C14.6062 16.7104 14.3094 16.8333 14 16.8333C13.6906 16.8333 13.3938 16.7104 13.175 16.4916C12.9562 16.2728 12.8333 15.9761 12.8333 15.6667C12.8333 15.3572 12.9562 15.0605 13.175 14.8417C13.3938 14.6229 13.6906 14.5 14 14.5C14.3094 14.5 14.6062 14.6229 14.825 14.8417C15.0437 15.0605 15.1667 15.3572 15.1667 15.6667ZM9.33333 20.3333C9.33333 20.6428 9.21042 20.9395 8.99162 21.1583C8.77283 21.3771 8.47609 21.5 8.16667 21.5C7.85725 21.5 7.5605 21.3771 7.34171 21.1583C7.12292 20.9395 7 20.6428 7 20.3333C7 20.0239 7.12292 19.7272 7.34171 19.5084C7.5605 19.2896 7.85725 19.1667 8.16667 19.1667C8.47609 19.1667 8.77283 19.2896 8.99162 19.5084C9.21042 19.7272 9.33333 20.0239 9.33333 20.3333ZM9.33333 15.6667C9.33333 15.9761 9.21042 16.2728 8.99162 16.4916C8.77283 16.7104 8.47609 16.8333 8.16667 16.8333C7.85725 16.8333 7.5605 16.7104 7.34171 16.4916C7.12292 16.2728 7 15.9761 7 15.6667C7 15.3572 7.12292 15.0605 7.34171 14.8417C7.5605 14.6229 7.85725 14.5 8.16667 14.5C8.47609 14.5 8.77283 14.6229 8.99162 14.8417C9.21042 15.0605 9.33333 15.3572 9.33333 15.6667Z" fill="#463bc3"/>
</g>
</g>
</svg>